<svg xmlns="http://www.w3.org/2000/svg" width="1280" height="720" viewBox="0 0 1280 720" role="img" aria-label="Cover Sistem Informasi Penjualan">
  <defs>
    <linearGradient id="bg" x1="0" x2="1" y1="0" y2="1">
      <stop offset="0" stop-color="#f7fbff"/>
      <stop offset="1" stop-color="#edf9fb"/>
    </linearGradient>
    <linearGradient id="wash" x1="0" x2="1">
      <stop offset="0" stop-color="#c9eef4" stop-opacity=".92"/>
      <stop offset="1" stop-color="#f9e8dd" stop-opacity=".72"/>
    </linearGradient>
    <filter id="shadow" x="-20%" y="-20%" width="140%" height="140%">
      <feDropShadow dx="0" dy="18" stdDeviation="18" flood-color="#123044" flood-opacity=".18"/>
    </filter>
  </defs>
  <rect width="1280" height="720" fill="url(#bg)"/>
  <circle cx="470" cy="310" r="265" fill="url(#wash)" opacity=".92"/>
  <circle cx="1040" cy="92" r="120" fill="#d6f4f8" opacity=".8"/>
  <circle cx="112" cy="620" r="88" fill="#f8d8d1" opacity=".55"/>
  <g fill="#1d7890" opacity=".7">
    <circle cx="48" cy="108" r="5"/><circle cx="75" cy="132" r="4"/><circle cx="104" cy="104" r="3"/>
    <circle cx="1120" cy="580" r="5"/><circle cx="1152" cy="612" r="4"/><circle cx="1188" cy="568" r="3"/>
  </g>
  <g transform="translate(70 92)">
    <rect x="0" y="0" width="218" height="46" rx="14" fill="#ffffff" stroke="#95d6e2" stroke-width="3"/>
    <text x="22" y="30" font-family="Inter, Arial, sans-serif" font-size="20" font-weight="800" fill="#0f3a52">Web Application</text>
    <text x="0" y="112" font-family="Plus Jakarta Sans, Inter, Arial, sans-serif" font-size="64" font-weight="900" fill="#073557">Sistem Informasi</text>
    <text x="0" y="184" font-family="Plus Jakarta Sans, Inter, Arial, sans-serif" font-size="64" font-weight="900" fill="#073557">Penjualan</text>
    <text x="0" y="238" font-family="Inter, Arial, sans-serif" font-size="28" font-weight="700" fill="#1d7890">Dashboard penjualan, kasir, menu, dan laporan.</text>
  </g>
  <g transform="translate(515 156)" filter="url(#shadow)">
    <rect width="560" height="360" rx="28" fill="#ffffff"/>
    <rect width="110" height="360" rx="28" fill="#fbfbfd"/>
    <rect x="18" y="24" width="42" height="42" rx="12" fill="#cf332d"/>
    <text x="72" y="48" font-family="Inter, Arial, sans-serif" font-size="20" font-weight="900" fill="#0f172a">Bakso Tulus</text>
    <rect x="18" y="94" width="74" height="18" rx="9" fill="#f5dcdc"/>
    <rect x="18" y="128" width="74" height="18" rx="9" fill="#eef2f7"/>
    <rect x="18" y="162" width="74" height="18" rx="9" fill="#eef2f7"/>
    <text x="142" y="48" font-family="Inter, Arial, sans-serif" font-size="22" font-weight="900" fill="#111827">Dashboard</text>
    <rect x="142" y="82" width="182" height="74" rx="14" fill="#fff7f7" stroke="#f3d0cd"/>
    <rect x="342" y="82" width="178" height="74" rx="14" fill="#f7fffb" stroke="#cfefe0"/>
    <rect x="142" y="178" width="238" height="142" rx="18" fill="#ffffff" stroke="#e5e7eb"/>
    <polyline points="170,274 215,252 258,262 306,228 350,246" fill="none" stroke="#cf332d" stroke-width="5" stroke-linecap="round"/>
    <rect x="402" y="178" width="118" height="142" rx="18" fill="#ffffff" stroke="#e5e7eb"/>
    <rect x="423" y="206" width="72" height="12" rx="6" fill="#f0d2cf"/>
    <rect x="423" y="236" width="86" height="12" rx="6" fill="#e5e7eb"/>
    <rect x="423" y="266" width="56" height="12" rx="6" fill="#e5e7eb"/>
  </g>
  <g transform="translate(918 344)" filter="url(#shadow)">
    <rect width="184" height="314" rx="32" fill="#111827"/>
    <rect x="11" y="12" width="162" height="290" rx="26" fill="#ffffff"/>
    <text x="30" y="62" font-family="Inter, Arial, sans-serif" font-size="18" font-weight="900" fill="#111827">Halo, Farhan</text>
    <rect x="28" y="88" width="128" height="28" rx="14" fill="#f7f7f8"/>
    <rect x="28" y="132" width="56" height="32" rx="12" fill="#cf332d"/>
    <rect x="96" y="132" width="56" height="32" rx="12" fill="#f7f7f8"/>
    <rect x="28" y="186" width="58" height="72" rx="14" fill="#fff1ef"/>
    <rect x="98" y="186" width="58" height="72" rx="14" fill="#fff1ef"/>
  </g>
</svg>
