<svg xmlns="http://www.w3.org/2000/svg" width="1280" height="720" viewBox="0 0 1280 720" role="img" aria-label="Menu pelanggan SIP mobile">
  <rect width="1280" height="720" fill="#f8fafc"/>
  <g transform="translate(500 28)">
    <rect width="280" height="664" rx="34" fill="#111827"/>
    <rect x="10" y="12" width="260" height="640" rx="28" fill="#ffffff"/>
    <text x="28" y="58" font-family="Plus Jakarta Sans, Arial, sans-serif" font-size="22" font-weight="900" fill="#111827">Halo, Farhan</text>
    <rect x="28" y="82" width="224" height="46" rx="16" fill="#fff" stroke="#e5e7eb" stroke-width="2"/>
    <text x="58" y="111" font-family="Inter, Arial, sans-serif" font-size="13" font-weight="800" fill="#94a3b8">Cari menu favorit...</text>
    <rect x="28" y="148" width="72" height="36" rx="18" fill="#cf332d"/><text x="48" y="171" font-family="Inter, Arial, sans-serif" font-size="13" font-weight="900" fill="#fff">Semua</text>
    <rect x="112" y="148" width="64" height="36" rx="18" fill="#f8fafc" stroke="#e5e7eb"/><text x="130" y="171" font-family="Inter, Arial, sans-serif" font-size="13" font-weight="900" fill="#64748b">Bakso</text>
    <text x="28" y="224" font-family="Inter, Arial, sans-serif" font-size="13" font-weight="900" fill="#64748b">DAFTAR MENU</text>
    <g>
      <rect x="28" y="244" width="104" height="142" rx="12" fill="#fff" stroke="#e5e7eb"/>
      <rect x="28" y="244" width="104" height="72" rx="12" fill="#fee2e2"/>
      <text x="42" y="338" font-family="Inter, Arial, sans-serif" font-size="14" font-weight="900" fill="#111827">Bakso Halus</text>
      <text x="42" y="372" font-family="Inter, Arial, sans-serif" font-size="15" font-weight="900" fill="#cf332d">Rp 15.000</text>
      <rect x="148" y="244" width="104" height="142" rx="12" fill="#fff" stroke="#e5e7eb"/>
      <rect x="148" y="244" width="104" height="72" rx="12" fill="#fee2e2"/>
      <text x="162" y="338" font-family="Inter, Arial, sans-serif" font-size="14" font-weight="900" fill="#111827">Bakso Urat</text>
      <text x="162" y="372" font-family="Inter, Arial, sans-serif" font-size="15" font-weight="900" fill="#cf332d">Rp 18.000</text>
    </g>
    <rect x="10" y="580" width="260" height="72" fill="#ffffff"/>
    <rect x="28" y="592" width="96" height="44" rx="14" fill="#fee2e2"/>
    <text x="60" y="620" font-family="Inter, Arial, sans-serif" font-size="13" font-weight="900" fill="#cf332d">Menu</text>
  </g>
</svg>
