<svg xmlns="http://www.w3.org/2000/svg" width="1280" height="720" viewBox="0 0 1280 720" role="img" aria-label="Status pesanan pelanggan SIP mobile">
  <rect width="1280" height="720" fill="#f8fafc"/>
  <g transform="translate(500 28)">
    <rect width="280" height="664" rx="34" fill="#111827"/>
    <rect x="10" y="12" width="260" height="640" rx="28" fill="#ffffff"/>
    <text x="70" y="58" font-family="Plus Jakarta Sans, Arial, sans-serif" font-size="22" font-weight="900" fill="#111827">Status Pesanan</text>
    <rect x="24" y="86" width="232" height="184" rx="18" fill="#fff9ed" stroke="#fdba74" stroke-width="2"/>
    <circle cx="140" cy="136" r="36" fill="#fff2d5"/>
    <text x="72" y="194" font-family="Inter, Arial, sans-serif" font-size="22" font-weight="900" fill="#111827">Menunggu Konfirmasi</text>
    <text x="84" y="220" font-family="Inter, Arial, sans-serif" font-size="13" font-weight="800" fill="#94a3b8">Pesanan masuk ke sistem.</text>
    <rect x="42" y="232" width="196" height="30" rx="10" fill="#ffffff"/>
    <rect x="24" y="292" width="232" height="128" rx="16" fill="#fff" stroke="#fed7aa" stroke-width="2"/>
    <text x="38" y="326" font-family="Inter, Arial, sans-serif" font-size="13" font-weight="900" fill="#64748b">PESANAN DIBELI</text>
    <text x="54" y="364" font-family="Inter, Arial, sans-serif" font-size="14" font-weight="900" fill="#111827">Baso Besar</text>
    <text x="214" y="364" font-family="Inter, Arial, sans-serif" font-size="13" font-weight="900" fill="#f59e0b">x1</text>
    <text x="54" y="396" font-family="Inter, Arial, sans-serif" font-size="14" font-weight="900" fill="#111827">Bakso Urat</text>
    <text x="214" y="396" font-family="Inter, Arial, sans-serif" font-size="13" font-weight="900" fill="#f59e0b">x1</text>
    <rect x="24" y="444" width="232" height="150" rx="16" fill="#fff" stroke="#fed7aa" stroke-width="2"/>
    <text x="38" y="478" font-family="Inter, Arial, sans-serif" font-size="13" font-weight="900" fill="#64748b">PROGRESS</text>
    <circle cx="52" cy="516" r="14" fill="#f59e0b"/><text x="80" y="522" font-family="Inter, Arial, sans-serif" font-size="14" font-weight="900" fill="#111827">Pesanan Diterima</text>
    <circle cx="52" cy="558" r="14" fill="#d1d5db"/><text x="80" y="564" font-family="Inter, Arial, sans-serif" font-size="14" font-weight="900" fill="#111827">Dikonfirmasi Admin</text>
  </g>
</svg>
