<svg xmlns="http://www.w3.org/2000/svg" width="1280" height="720" viewBox="0 0 1280 720" role="img" aria-label="Kelola pesanan SIP">
  <rect width="1280" height="720" fill="#f4f5f7"/>
  <rect width="210" height="720" fill="#ffffff"/>
  <text x="58" y="62" font-family="Inter, Arial, sans-serif" font-size="24" font-weight="900" fill="#111827">Bakso Tulus</text>
  <rect x="24" y="214" width="162" height="34" rx="10" fill="#ffe8e7"/>
  <text x="58" y="236" font-family="Inter, Arial, sans-serif" font-size="15" font-weight="900" fill="#cf332d">Kelola Pesanan</text>
  <g transform="translate(250 44)">
    <text x="0" y="44" font-family="Plus Jakarta Sans, Arial, sans-serif" font-size="32" font-weight="900" fill="#111827">Kelola Pesanan</text>
    <rect x="0" y="86" width="920" height="48" rx="14" fill="#ffffff" stroke="#e5e7eb" stroke-width="2"/>
    <text x="32" y="117" font-family="Inter, Arial, sans-serif" font-size="16" font-weight="800" fill="#64748b">Cari ID pesanan / nama pelanggan</text>
    <rect x="738" y="86" width="182" height="48" rx="14" fill="#cf332d"/>
    <text x="780" y="117" font-family="Inter, Arial, sans-serif" font-size="16" font-weight="900" fill="#fff">Tambah Manual</text>
    <rect x="0" y="166" width="920" height="468" rx="18" fill="#ffffff" stroke="#e5e7eb" stroke-width="2"/>
    <g font-family="Inter, Arial, sans-serif" font-size="14" font-weight="900" fill="#8b95a7">
      <text x="36" y="216">NO</text><text x="120" y="216">ID PESANAN</text><text x="285" y="216">NAMA PELANGGAN</text><text x="510" y="216">TOTAL</text><text x="650" y="216">STATUS</text><text x="800" y="216">AKSI</text>
    </g>
    <g font-family="Inter, Arial, sans-serif" font-size="15" font-weight="800" fill="#111827">
      <text x="36" y="268">1</text><text x="120" y="268">#PSN-0028</text><text x="285" y="268">Budi</text><text x="510" y="268">Rp 65.000</text><text x="650" y="268" fill="#a16207">Menunggu</text>
      <text x="36" y="322">2</text><text x="120" y="322">#PSN-0027</text><text x="285" y="322">Sari</text><text x="510" y="322">Rp 42.000</text><text x="650" y="322" fill="#2563eb">Dikonfirmasi</text>
      <text x="36" y="376">3</text><text x="120" y="376">#PSN-0026</text><text x="285" y="376">Andi</text><text x="510" y="376">Rp 88.000</text><text x="650" y="376" fill="#059669">Selesai</text>
      <text x="36" y="430">4</text><text x="120" y="430">#PSN-0025</text><text x="285" y="430">Rini</text><text x="510" y="430">Rp 30.000</text><text x="650" y="430" fill="#059669">Selesai</text>
      <text x="36" y="484">5</text><text x="120" y="484">#PSN-0024</text><text x="285" y="484">Joko</text><text x="510" y="484">Rp 73.000</text><text x="650" y="484" fill="#dc2626">Batal</text>
    </g>
    <g stroke="#eef0f4" stroke-width="2"><line x1="28" x2="892" y1="238" y2="238"/><line x1="28" x2="892" y1="292" y2="292"/><line x1="28" x2="892" y1="346" y2="346"/><line x1="28" x2="892" y1="400" y2="400"/><line x1="28" x2="892" y1="454" y2="454"/></g>
  </g>
</svg>
