<svg xmlns="http://www.w3.org/2000/svg" width="1280" height="720" viewBox="0 0 1280 720" role="img" aria-label="Laporan penjualan SIP">
  <rect width="1280" height="720" fill="#f4f5f7"/>
  <rect width="210" height="720" fill="#ffffff"/>
  <text x="58" y="62" font-family="Inter, Arial, sans-serif" font-size="24" font-weight="900" fill="#111827">Bakso Tulus</text>
  <rect x="24" y="358" width="162" height="34" rx="10" fill="#ffe8e7"/>
  <text x="58" y="380" font-family="Inter, Arial, sans-serif" font-size="15" font-weight="900" fill="#cf332d">Laporan</text>
  <g transform="translate(250 42)">
    <text x="0" y="44" font-family="Plus Jakarta Sans, Arial, sans-serif" font-size="32" font-weight="900" fill="#111827">Laporan Penjualan</text>
    <g fill="#fff" stroke="#e5e7eb" stroke-width="2">
      <rect x="0" y="112" width="286" height="74" rx="14"/><rect x="310" y="112" width="286" height="74" rx="14"/><rect x="620" y="112" width="286" height="74" rx="14"/>
    </g>
    <text x="24" y="144" font-family="Inter, Arial, sans-serif" font-size="14" font-weight="800" fill="#8b95a7">Omzet Kotor</text>
    <text x="24" y="170" font-family="Inter, Arial, sans-serif" font-size="24" font-weight="900" fill="#111827">Rp 622rb</text>
    <text x="334" y="144" font-family="Inter, Arial, sans-serif" font-size="14" font-weight="800" fill="#8b95a7">Laba Bersih</text>
    <text x="334" y="170" font-family="Inter, Arial, sans-serif" font-size="24" font-weight="900" fill="#111827">Rp 398rb</text>
    <text x="644" y="144" font-family="Inter, Arial, sans-serif" font-size="14" font-weight="800" fill="#8b95a7">Total Modal</text>
    <text x="644" y="170" font-family="Inter, Arial, sans-serif" font-size="24" font-weight="900" fill="#111827">Rp 225rb</text>
    <rect x="0" y="220" width="640" height="244" rx="16" fill="#ffffff" stroke="#e5e7eb" stroke-width="2"/>
    <text x="28" y="262" font-family="Inter, Arial, sans-serif" font-size="20" font-weight="900" fill="#111827">Tren Penjualan Harian</text>
    <g fill="#cf332d"><rect x="76" y="338" width="84" height="92" rx="6"/><rect x="218" y="384" width="84" height="46" rx="6"/><rect x="360" y="330" width="84" height="100" rx="6"/><rect x="502" y="362" width="84" height="68" rx="6"/></g>
    <rect x="668" y="220" width="238" height="244" rx="16" fill="#ffffff" stroke="#e5e7eb" stroke-width="2"/>
    <text x="696" y="262" font-family="Inter, Arial, sans-serif" font-size="20" font-weight="900" fill="#111827">Per Kategori</text>
    <rect x="696" y="310" width="152" height="10" rx="5" fill="#cf332d"/><rect x="696" y="364" width="116" height="10" rx="5" fill="#f59e0b"/><rect x="696" y="418" width="86" height="10" rx="5" fill="#2563eb"/>
    <rect x="0" y="496" width="906" height="126" rx="16" fill="#ffffff" stroke="#e5e7eb" stroke-width="2"/>
    <text x="28" y="536" font-family="Inter, Arial, sans-serif" font-size="20" font-weight="900" fill="#111827">Rekap Harian</text>
  </g>
</svg>
