<svg xmlns="http://www.w3.org/2000/svg" width="1280" height="720" viewBox="0 0 1280 720" role="img" aria-label="Kelola transaksi SIP">
  <rect width="1280" height="720" fill="#f4f5f7"/>
  <rect width="210" height="720" fill="#ffffff"/>
  <text x="58" y="62" font-family="Inter, Arial, sans-serif" font-size="24" font-weight="900" fill="#111827">Bakso Tulus</text>
  <rect x="24" y="262" width="162" height="34" rx="10" fill="#ffe8e7"/>
  <text x="58" y="284" font-family="Inter, Arial, sans-serif" font-size="15" font-weight="900" fill="#cf332d">Kelola Transaksi</text>
  <g transform="translate(250 42)">
    <text x="0" y="44" font-family="Plus Jakarta Sans, Arial, sans-serif" font-size="32" font-weight="900" fill="#111827">Kelola Transaksi</text>
    <g fill="#fff" stroke="#e5e7eb" stroke-width="2">
      <rect x="0" y="86" width="286" height="86" rx="14"/><rect x="310" y="86" width="286" height="86" rx="14"/><rect x="620" y="86" width="286" height="86" rx="14"/>
    </g>
    <text x="24" y="120" font-family="Inter, Arial, sans-serif" font-size="14" font-weight="800" fill="#8b95a7">Total Transaksi</text>
    <text x="24" y="152" font-family="Inter, Arial, sans-serif" font-size="30" font-weight="900" fill="#111827">17</text>
    <text x="334" y="120" font-family="Inter, Arial, sans-serif" font-size="14" font-weight="800" fill="#8b95a7">Total Pendapatan</text>
    <text x="334" y="152" font-family="Inter, Arial, sans-serif" font-size="30" font-weight="900" fill="#111827">Rp 622.000</text>
    <text x="644" y="120" font-family="Inter, Arial, sans-serif" font-size="14" font-weight="800" fill="#8b95a7">Rata-rata / Transaksi</text>
    <text x="644" y="152" font-family="Inter, Arial, sans-serif" font-size="30" font-weight="900" fill="#111827">Rp 36.588</text>
    <rect x="0" y="204" width="906" height="76" rx="16" fill="#ffffff" stroke="#e5e7eb" stroke-width="2"/>
    <rect x="24" y="222" width="76" height="40" rx="20" fill="#cf332d"/><text x="40" y="248" font-family="Inter, Arial, sans-serif" font-size="14" font-weight="900" fill="#fff">30 hari</text>
    <rect x="0" y="306" width="906" height="314" rx="18" fill="#ffffff" stroke="#e5e7eb" stroke-width="2"/>
    <text x="32" y="354" font-family="Inter, Arial, sans-serif" font-size="22" font-weight="900" fill="#111827">Riwayat Transaksi</text>
    <g font-family="Inter, Arial, sans-serif" font-size="14" font-weight="900" fill="#8b95a7">
      <text x="32" y="408">ID PESANAN</text><text x="210" y="408">TGL BAYAR</text><text x="368" y="408">PELANGGAN</text><text x="610" y="408">TOTAL</text><text x="760" y="408">AKSI</text>
    </g>
    <g font-family="Inter, Arial, sans-serif" font-size="15" font-weight="800" fill="#111827">
      <text x="32" y="458">#TRX-000048</text><text x="210" y="458">29 Mei, 13.39</text><text x="368" y="458">Farhan Reninda</text><text x="610" y="458">Rp 15.000</text>
      <text x="32" y="512">#TRX-000035</text><text x="210" y="512">21 Mei, 16.41</text><text x="368" y="512">farhan</text><text x="610" y="512">Rp 33.000</text>
      <text x="32" y="566">#TRX-000037</text><text x="210" y="566">21 Mei, 16.41</text><text x="368" y="566">farhan</text><text x="610" y="566">Rp 15.000</text>
    </g>
  </g>
</svg>
